<?xml version="1.0" standalone="no"?>
<!DOCTYPE svg PUBLIC "-//W3C//DTD SVG 20010904//EN"
 "http://www.w3.org/TR/2001/REC-SVG-20010904/DTD/svg10.dtd">
<svg version="1.0" xmlns="http://www.w3.org/2000/svg"
 width="25.000000pt" height="32.000000pt" viewBox="0 0 25.000000 32.000000"
 preserveAspectRatio="xMidYMid meet">

<g transform="translate(0.000000,32.000000) scale(0.100000,-0.100000)"
fill="#000000" stroke="none">
<path d="M75 295 c-16 -15 -25 -36 -25 -54 0 -23 -5 -30 -22 -33 -22 -3 -23
-8 -26 -91 -2 -57 1 -94 9 -103 16 -20 212 -20 228 0 8 9 11 46 9 103 -3 83
-4 88 -25 91 -18 3 -23 10 -23 33 0 37 -40 79 -75 79 -14 0 -37 -11 -50 -25z
m83 -17 c7 -7 12 -25 12 -40 0 -27 -2 -28 -45 -28 -43 0 -45 1 -45 28 0 33 16
52 45 52 12 0 26 -5 33 -12z m62 -173 l0 -75 -95 0 -95 0 0 75 0 75 95 0 95 0
0 -75z"/>
<path d="M102 108 c2 -15 10 -23 23 -23 13 0 21 8 23 23 3 18 -1 22 -23 22
-22 0 -26 -4 -23 -22z"/>
</g>
</svg>
